<?xml version="1.0" ?><svg id="Layer_1" style="enable-background:new 0 0 50 50;" version="1.1" viewBox="0 0 50 50" xml:space="preserve" xmlns="http://www.w3.org/2000/svg" xmlns:xlink="http://www.w3.org/1999/xlink"><g id="Layer_1_1_"><path d="M24,1H1v44h23h2h23V1H26H24z M24,43H3V3h21V43z M47,3v40H26V3H47z"/><rect height="2" width="48" x="1" y="47"/><rect height="2" width="13" x="7" y="7"/><rect height="2" width="13" x="7" y="13"/><rect height="2" width="13" x="7" y="19"/><rect height="2" width="13" x="7" y="25"/><rect height="2" width="13" x="7" y="31"/><rect height="2" width="13" x="7" y="37"/><rect height="2" width="13" x="30" y="7"/><rect height="2" width="13" x="30" y="13"/><rect height="2" width="13" x="30" y="19"/><rect height="2" width="13" x="30" y="25"/><rect height="2" width="13" x="30" y="31"/><rect height="2" width="13" x="30" y="37"/></g></svg>