<?xml version="1.0" ?><svg id="Layer_1" style="enable-background:new 0 0 50 50;" version="1.1" viewBox="0 0 50 50" xml:space="preserve" xmlns="http://www.w3.org/2000/svg" xmlns:xlink="http://www.w3.org/1999/xlink"><g id="Layer_1_1_"><path d="M9,6v38c0,2.757,2.243,5,5,5h22c2.757,0,5-2.243,5-5V6c0-2.757-2.243-5-5-5H14C11.243,1,9,3.243,9,6z M39,6v38   c0,1.654-1.346,3-3,3H14c-1.654,0-3-1.346-3-3V6c0-1.654,1.346-3,3-3h22C37.654,3,39,4.346,39,6z"/><path d="M14,22h22V6H14V22z M16,8h18v12H16V8z"/><rect height="2" width="5" x="14" y="27"/><rect height="2" width="5" x="31" y="27"/><path d="M21,32h8v-8h-8V32z M23,26h4v4h-4V26z"/><rect height="2" width="4" x="16" y="34"/><rect height="2" width="4" x="23" y="34"/><rect height="2" width="4" x="30" y="34"/><rect height="2" width="4" x="16" y="38"/><rect height="2" width="4" x="23" y="38"/><rect height="2" width="4" x="30" y="38"/><rect height="2" width="4" x="16" y="42"/><rect height="2" width="4" x="23" y="42"/><rect height="2" width="4" x="30" y="42"/></g></svg>