<?xml version="1.0" ?><svg style="enable-background:new 0 0 50 50;" version="1.1" viewBox="0 0 50 50" xml:space="preserve" xmlns="http://www.w3.org/2000/svg" xmlns:xlink="http://www.w3.org/1999/xlink"><g id="Layer_1"><path d="M1,49h48V1H1V49z M3,3h44v44H3V3z"/><path d="M14,6h-3c-2.757,0-5,2.243-5,5v28c0,2.757,2.243,5,5,5h3c2.757,0,5-2.243,5-5V11C19,8.243,16.757,6,14,6z M17,39   c0,1.654-1.346,3-3,3h-3c-1.654,0-3-1.346-3-3V11c0-1.654,1.346-3,3-3h3c1.654,0,3,1.346,3,3V39z"/><path d="M22,16h22V6H22V16z M24,8h18v6H24V8z"/><rect height="2" width="4" x="23" y="27"/><rect height="2" width="4" x="31" y="27"/><rect height="2" width="4" x="39" y="27"/><rect height="2" width="4" x="23" y="32"/><rect height="2" width="4" x="31" y="32"/><rect height="2" width="4" x="39" y="32"/><rect height="2" width="4" x="23" y="37"/><rect height="2" width="4" x="31" y="37"/><rect height="2" width="4" x="39" y="37"/><rect height="2" width="4" x="23" y="42"/><rect height="2" width="4" x="31" y="42"/><rect height="2" width="4" x="39" y="42"/><path d="M22,24h8v-6h-8V24z M24,20h4v2h-4V20z"/><path d="M36,24h8v-6h-8V24z M38,20h4v2h-4V20z"/></g><g/></svg>