<?xml version="1.0" ?><svg style="enable-background:new 0 0 50 50;" version="1.1" viewBox="0 0 50 50" xml:space="preserve" xmlns="http://www.w3.org/2000/svg" xmlns:xlink="http://www.w3.org/1999/xlink"><g id="Layer_1"><path d="M45.633,17.348C46.54,19.792,47,22.367,47,25c0,12.131-9.869,22-22,22c-6.595,0-12.795-2.963-16.958-8H15v-2H5v10h2v-6.126   C11.53,46.007,18.068,49,25,49c13.234,0,24-10.767,24-24c0-2.872-0.502-5.68-1.492-8.348L45.633,17.348z"/><path d="M35,13h10V3h-2v6.125C38.47,3.992,31.934,1,25,1C11.767,1,1,11.767,1,25c0,2.872,0.502,5.68,1.492,8.348l1.875-0.696   C3.46,30.208,3,27.633,3,25C3,12.869,12.869,3,25,3c6.598,0,12.795,2.962,16.958,8H35V13z"/></g><g/></svg>