<?xml version="1.0" ?><svg id="Layer_1" style="enable-background:new 0 0 50 50;" version="1.1" viewBox="0 0 50 50" xml:space="preserve" xmlns="http://www.w3.org/2000/svg" xmlns:xlink="http://www.w3.org/1999/xlink"><g id="Layer_1_1_"><path d="M41,1H9v48h32V1z M39,3v16H26.414l-4-4H11V3H39z M11,47V17h10.586l4,4H39v26H11z"/><path d="M36,6H14v6h22V6z M34,10H16V8h18V10z"/><path d="M28.501,30.944l-1.003,1.73c1.543,0.894,2.501,2.552,2.501,4.326c0,2.757-2.243,5-5,5s-5-2.243-5-5   c0-1.774,0.958-3.432,2.501-4.326l-1.003-1.73c-2.158,1.25-3.499,3.571-3.499,6.056c0,3.86,3.14,7,7,7s7-3.14,7-7   C32,34.515,30.659,32.194,28.501,30.944z"/><rect height="8" width="2" x="24" y="29"/><rect height="2" width="2" x="34" y="14"/></g></svg>