<?xml version="1.0" ?><svg style="enable-background:new 0 0 50 50;" version="1.1" viewBox="0 0 50 50" xml:space="preserve" xmlns="http://www.w3.org/2000/svg" xmlns:xlink="http://www.w3.org/1999/xlink"><g id="Layer_1"><rect height="2" width="2" x="6" y="7"/><rect height="2" width="19" x="11" y="7"/><rect height="2" width="2" x="6" y="19"/><rect height="2" width="2" x="6" y="31"/><path d="M44.181,38.233L39,25.8V23h5v-6h-5v-7h-4V1H1v12v2v10v2v12h23.586l3,3H19v7h30v-7h-8.586L44.181,38.233z M42,19v2h-3H29h-3   v-2h3h10H42z M37,12v5h-6v-2v-3h4H37z M3,3h30v7h-4v3H3V3z M3,15h26v2h-5v2H11v2h13v2h5v2H3V15z M3,27h25.5l-1.667,4H11v2h15   l-1.667,4H3V27z M26.181,37.767L31,26.2V23h6v3.2l4.819,11.566L37.586,42h-7.172L26.181,37.767z M47,44v3H21v-3h8.586h8.828H47z"/></g><g/></svg>