<?xml version="1.0" ?><svg style="enable-background:new 0 0 50 50;" version="1.1" viewBox="0 0 50 50" xml:space="preserve" xmlns="http://www.w3.org/2000/svg" xmlns:xlink="http://www.w3.org/1999/xlink"><g id="Layer_1"><path d="M1,49h48V1H1V49z M3,47V11h44v36H3z M47,3v6H3V3H47z"/><rect height="2" width="36" x="7" y="15"/><rect height="2" width="3" x="11" y="20"/><rect height="2" width="21" x="18" y="20"/><rect height="2" width="3" x="11" y="25"/><rect height="2" width="21" x="18" y="25"/><rect height="2" width="3" x="11" y="30"/><rect height="2" width="21" x="18" y="30"/><rect height="2" width="3" x="11" y="35"/><rect height="2" width="21" x="18" y="35"/><rect height="2" width="3" x="11" y="40"/><rect height="2" width="21" x="18" y="40"/></g><g/></svg>