<?xml version="1.0" standalone="no"?>
        <!DOCTYPE svg PUBLIC "-//W3C//DTD SVG 1.1//EN" 
        "http://www.w3.org/Graphics/SVG/1.1/DTD/svg11.dtd"><svg style="opacity: 0.3; background-color: rgba(0,0,0,0.05)" width="409" height="292" viewBox="0 0 409 292" xmlns="http://www.w3.org/2000/svg" fill="#333"><g transform="translate(154.5 96)"><g>
<path d="M74.17,17.86,57.1,21.14l-9.89-1.4c-11.14-1.6-11.63-1.46-12.33,2.93-.48,3,.49,2.58-11,4.94-2.16.42-4.32,1.26-4.74,1.75-.69.83.21,6.61,4.25,27.58,4.39,22.63,5.36,26.67,6.55,27.44s4.39.35,20.89-2.86l19.5-3.83,14.14,2C94.71,81,99,81.31,99.8,80.82s1.39-2.29,1.81-5,1-4.32,1.53-4.32a3.18,3.18,0,0,0,1.74-1.11c.7-.84.77-2.23.07-6.76-.7-5.15-.56-7.1,1.18-19.29,1.26-8.43,1.74-14,1.4-14.77-.7-1.32-1.61-1.67-6.34-2.29-3.28-.42-3.28-.42-4-3.9a34.16,34.16,0,0,1-.77-4.67c0-1.95-2-4.32-3.69-4.25C91.93,14.45,83.57,16,74.17,17.86Zm17,3.9a10,10,0,0,1,.42,2.65v1.53l-7.32-1c-4-.56-7.31-1.26-7.31-1.47,0-.41,9.68-2.5,12.61-2.78A1.77,1.77,0,0,1,91.16,21.76Zm-18,6.9c15.32,2.16,28.21,4,28.63,4.18s-.21,6.82-2.23,20.89c-1.61,11.35-3.07,20.83-3.28,21s-14.14-1.61-31.06-4c-29.81-4.18-30.71-4.39-30.71-5.85,0-.84,1.25-10.24,2.78-21S40,24.34,40,24.27a7.13,7.13,0,0,1,2.64.14C44.08,24.62,57.8,26.57,73.12,28.66ZM33.56,33.33c-.21.9-1,6.68-2,12.88s-1.74,11.35-1.95,11.35S28.34,53,27.29,47.25s-2.16-11.07-2.37-12.11c-.34-1.68-.14-1.88,2.65-2.51C32.86,31.44,34,31.58,33.56,33.33ZM42,73.65c3.48.42,6.41,1,6.41,1.25,0,.56-14.56,3.21-15,2.72a11.63,11.63,0,0,1-.76-3c-.42-2.51-.35-2.65,1.25-2.23C34.74,72.61,38.44,73.16,42,73.65Z" transform="translate(-18.93 -14.45)"/><path d="M50.35,33.46C45.4,37.23,49.3,45.3,55.5,44c4-.9,5.57-7,2.44-10C56.13,32.28,52.23,32,50.35,33.46Z" transform="translate(-18.93 -14.45)"/><path d="M70.33,48.51c-2.29,2.71-5.15,6-6.33,7.38L61.91,58.4l-6.06-3-6.06-3-5.23,5.15c-2.85,2.86-4.94,5.37-4.66,5.57S51.39,65,64.76,66.55s24.87,3.13,25.49,3.27c1,.28,1-.7-.48-8.91-.91-5.09-1.68-9.41-1.68-9.62a21.22,21.22,0,0,0-2.92,2.58l-3,2.93-3.48-6.62c-1.88-3.55-3.62-6.55-3.83-6.48A42.17,42.17,0,0,0,70.33,48.51Z" transform="translate(-18.93 -14.45)"/>
</g></g></svg>