<?xml version="1.0" encoding="UTF-8" standalone="no"?>
<!DOCTYPE svg PUBLIC "-//W3C//DTD SVG 1.1//EN" "http://www.w3.org/Graphics/SVG/1.1/DTD/svg11.dtd">
<svg version="1.1" xmlns="http://www.w3.org/2000/svg" xmlns:xlink="http://www.w3.org/1999/xlink" preserveAspectRatio="xMidYMid meet" viewBox="0 0 1000 80" width="1000" height="80"><defs><path d="M544.25 9.03L544.25 70.97L455.75 70.97L455.75 9.03L544.25 9.03M450.22 3.5L450.22 76.5L549.78 76.5L549.78 3.5L450.22 3.5Z" id="d3YJ9MkYMH"></path><path d="M470.13 18.98C466.47 18.98 463.5 21.95 463.5 25.62C463.5 29.29 466.47 32.26 470.13 32.26C473.8 32.26 476.77 29.29 476.77 25.62C476.77 21.95 473.8 18.98 470.13 18.98Z" id="a4w3v89Pe4"></path><path d="M512.17 18.98L491.15 46.64L482.3 40L463.5 65.44L537.61 65.44L512.17 18.98Z" id="avG3YGQ3"></path></defs><g><g><g><use xlink:href="#d3YJ9MkYMH" opacity="0.5" fill="#000000" fill-opacity="1"></use><g><use xlink:href="#d3YJ9MkYMH" opacity="0.5" fill-opacity="0" stroke="#000000" stroke-width="1" stroke-opacity="0"></use></g></g><g><use xlink:href="#a4w3v89Pe4" opacity="0.5" fill="#000000" fill-opacity="1"></use><g><use xlink:href="#a4w3v89Pe4" opacity="0.5" fill-opacity="0" stroke="#000000" stroke-width="1" stroke-opacity="0"></use></g></g><g><use xlink:href="#avG3YGQ3" opacity="0.5" fill="#000000" fill-opacity="1"></use><g><use xlink:href="#avG3YGQ3" opacity="0.5" fill-opacity="0" stroke="#000000" stroke-width="1" stroke-opacity="0"></use></g></g></g></g></svg>