<?xml version="1.0" encoding="utf-8"?>
<svg viewBox="0 0 160 90" style="opacity: 0.3; background-color: rgba(0,0,0,0.05)" fill="#333" xmlns="http://www.w3.org/2000/svg">
  <path fill="#494c4e" d="M 82.364 38.906 C 83.767 38.907 84.909 40.038 84.923 41.441 L 84.923 41.807 L 89.43 40.198 C 89.565 40.151 89.707 40.125 89.851 40.125 C 90.106 40.127 90.354 40.204 90.566 40.347 C 90.888 40.577 91.08 40.948 91.082 41.344 L 91.082 48.656 C 91.077 49.062 90.874 49.44 90.539 49.668 C 90.334 49.802 90.096 49.874 89.852 49.875 C 89.692 49.877 89.533 49.849 89.385 49.79 L 84.929 47.973 L 84.929 48.56 C 84.913 49.965 83.77 51.095 82.366 51.094 L 71.48 51.094 C 70.076 51.093 68.935 49.963 68.921 48.559 L 68.921 41.441 C 68.935 40.038 70.076 38.907 71.48 38.906 L 82.364 38.906 M 82.364 36.69 L 71.48 36.69 C 68.85 36.685 66.711 38.811 66.705 41.441 L 66.705 48.559 C 66.711 51.189 68.85 53.317 71.48 53.31 L 82.364 53.31 C 84.041 53.311 85.597 52.431 86.463 50.994 L 88.544 51.842 C 88.959 52.01 89.403 52.095 89.851 52.091 C 90.519 52.091 91.173 51.898 91.735 51.537 L 91.77 51.515 L 91.807 51.49 C 92.736 50.846 93.293 49.788 93.296 48.656 L 93.296 41.344 C 93.293 40.237 92.76 39.198 91.862 38.55 L 91.823 38.521 L 91.786 38.494 C 90.871 37.883 89.719 37.742 88.683 38.113 L 86.415 38.922 C 85.538 37.53 84.007 36.688 82.362 36.69 Z" style=""/>
  <circle fill="#494c4e" cx="72.244" cy="42.23" r="1.108" style=""/>
</svg>