<?xml version="1.0" ?><svg style="enable-background:new 0 0 50 50;" version="1.1" viewBox="0 0 50 50" xml:space="preserve" xmlns="http://www.w3.org/2000/svg" xmlns:xlink="http://www.w3.org/1999/xlink"><g id="Layer_1"><path d="M44.181,38.233L39,25.8V23h5v-6h-5v-7h-4V1H8.586L1,8.586V39h23.586l3,3H19v7h30v-7h-8.586L44.181,38.233z M42,19v2h-3H29   h-3v-2h3h10H42z M37,17h-6v-5h6V17z M8,4.414V8H4.414L8,4.414z M3,10h7V3h23v7h-4v7h-5v6h5v2.8L24.333,37H3V10z M26.181,37.767   L31,26.2V23h6v3.2l4.819,11.566L37.586,42h-7.172L26.181,37.767z M47,44v3H21v-3h8.586h8.828H47z"/><rect height="2" width="11" x="10" y="14"/><rect height="2" width="11" x="10" y="19"/><rect height="2" width="11" x="10" y="24"/><rect height="2" width="11" x="10" y="29"/></g><g/></svg>