<?xml version="1.0" ?><svg id="Layer_1" style="enable-background:new 0 0 50 50;" version="1.1" viewBox="0 0 50 50" xml:space="preserve" xmlns="http://www.w3.org/2000/svg" xmlns:xlink="http://www.w3.org/1999/xlink"><g id="Layer_1_1_"><path d="M13,48.854c6.065,0,11-4.935,11-11c0-2.673-0.961-5.125-2.552-7.034L46.414,5.854l-4.707-4.707l-1.414,1.414l3.293,3.293   L40,9.439l-3.293-3.293l-1.414,1.414l3.293,3.293L20.034,29.406c-1.908-1.592-4.36-2.552-7.034-2.552c-6.065,0-11,4.935-11,11   S6.935,48.854,13,48.854z M13,28.854c4.962,0,9,4.038,9,9s-4.038,9-9,9s-9-4.038-9-9S8.038,28.854,13,28.854z"/><rect height="2" transform="matrix(0.7071 -0.7071 0.7071 0.7071 -26.2512 18.3317)" width="2.828" x="7.589" y="39.854"/></g></svg>