<?xml version="1.0" ?><svg style="enable-background:new 0 0 50 50;" version="1.1" viewBox="0 0 50 50" xml:space="preserve" xmlns="http://www.w3.org/2000/svg" xmlns:xlink="http://www.w3.org/1999/xlink"><g id="Layer_1"><polygon points="39.707,7.293 38.293,8.707 44.586,15 19,15 19,17 44.586,17 38.293,23.293 39.707,24.707 48.414,16  "/><rect height="2" width="3" x="1" y="15"/><rect height="2" width="3" x="7" y="15"/><rect height="2" width="3" x="13" y="15"/><polygon points="11.707,41.293 5.414,35 31,35 31,33 5.414,33 11.707,26.707 10.293,25.293 1.586,34 10.293,42.707  "/><rect height="2" width="3" x="46" y="33"/><rect height="2" width="3" x="40" y="33"/><rect height="2" width="3" x="34" y="33"/></g><g/></svg>