<?xml version="1.0" ?><svg style="enable-background:new 0 0 50 50;" version="1.1" viewBox="0 0 50 50" xml:space="preserve" xmlns="http://www.w3.org/2000/svg" xmlns:xlink="http://www.w3.org/1999/xlink"><g id="Layer_1"><path d="M26,3V1h-2v2H3H1v2h2v26H1v2h2h17.471L14,47.791V49h2v-0.791L22.654,33H24v16h2V33h1.346L34,48.209V49h2v-1.209L29.529,33   H47h2v-2h-2V5h2V3h-2H26z M45,31H5V5h40V31z"/><rect height="13" width="2" x="28" y="15"/><rect height="8" width="2" x="23" y="20"/><rect height="4" width="2" x="18" y="24"/><rect height="8" width="2" x="13" y="20"/><rect height="3" width="2" x="8" y="25"/><polygon points="14,15.414 19,20.414 29.707,9.707 28.293,8.293 19,17.586 14,12.586 7.293,19.293 8.707,20.707  "/><rect height="2" width="9" x="33" y="8"/><rect height="2" width="9" x="33" y="13"/></g><g/></svg>