<?xml version="1.0" ?><svg style="enable-background:new 0 0 50 50;" version="1.1" viewBox="0 0 50 50" xml:space="preserve" xmlns="http://www.w3.org/2000/svg" xmlns:xlink="http://www.w3.org/1999/xlink"><g id="Layer_1"><path d="M27,49h22V1H27V49z M29,3h18v3h-3v2h3v4h-6v2h6v4h-3v2h3v4h-6v2h6v4h-3v2h3v4h-6v2h6v4h-3v2h3v3H29V3z"/><path d="M23,10.555l-11-9.9l-11,9.9V49h22V10.555z M3,12.388l4,1.333V38H3V12.388z M20.055,10.594l-3.978,1.326L12,9.882   L7.923,11.92l-3.978-1.326L6.828,8h10.344L20.055,10.594z M9,13.618l3-1.5l3,1.5V38H9V13.618z M17,13.721l4-1.333V38h-4V13.721z    M14.95,6H9.05L12,3.345L14.95,6z M3,47v-7h18v7H3z"/></g><g/></svg>