<?xml version="1.0" ?><svg style="enable-background:new 0 0 50 50;" version="1.1" viewBox="0 0 50 50" xml:space="preserve" xmlns="http://www.w3.org/2000/svg" xmlns:xlink="http://www.w3.org/1999/xlink"><g id="Layer_1"><path d="M1,14h3v2H1v14h3v2H1v14h3v4h42v-4h3V32h-3v-2h3V16h-3v-2h3V0H1V14z M44,48H6v-2h38V48z M47,34v10h-1H4H3V34h1h42H47z    M44,32H6v-2h38V32z M47,18v10h-1H4H3V18h1h42H47z M44,16H6v-2h38V16z M3,2h44v10h-1H4H3V2z"/><rect height="4" width="2" x="6" y="5"/><rect height="4" width="2" x="11" y="5"/><rect height="4" width="2" x="16" y="5"/><rect height="4" width="2" x="21" y="5"/><rect height="2" width="2" x="42" y="6"/><rect height="2" width="13" x="26" y="6"/><rect height="4" width="2" x="6" y="21"/><rect height="4" width="2" x="11" y="21"/><rect height="4" width="2" x="16" y="21"/><rect height="4" width="2" x="21" y="21"/><rect height="2" width="2" x="42" y="22"/><rect height="2" width="13" x="26" y="22"/><rect height="4" width="2" x="6" y="37"/><rect height="4" width="2" x="11" y="37"/><rect height="4" width="2" x="16" y="37"/><rect height="4" width="2" x="21" y="37"/><rect height="2" width="2" x="42" y="38"/><rect height="2" width="13" x="26" y="38"/></g><g/></svg>