<?xml version="1.0" ?><svg style="enable-background:new 0 0 50 50;" version="1.1" viewBox="0 0 50 50" xml:space="preserve" xmlns="http://www.w3.org/2000/svg" xmlns:xlink="http://www.w3.org/1999/xlink"><g id="Layer_1"><path d="M44,7H6c-2.757,0-5,2.243-5,5v26c0,2.757,2.243,5,5,5h38c2.757,0,5-2.243,5-5V12C49,9.243,46.757,7,44,7z M39,9v32H11V9H39   z M3,38V12c0-1.654,1.346-3,3-3h3v32H6C4.346,41,3,39.654,3,38z M47,38c0,1.654-1.346,3-3,3h-3V9h3c1.654,0,3,1.346,3,3V38z"/><rect height="2" width="2" x="43" y="24"/><rect height="2" transform="matrix(0.7071 -0.7071 0.7071 0.7071 -10.2843 19.1716)" width="8.485" x="13.757" y="21"/><rect height="2" transform="matrix(0.7071 -0.7071 0.7071 0.7071 -4.2843 21.6569)" width="2.828" x="22.586" y="15"/><rect height="2" transform="matrix(0.7071 -0.7071 0.7071 0.7071 -10.4264 30.8284)" width="8.485" x="27.757" y="27"/><rect height="2" transform="matrix(0.7071 -0.7071 0.7071 0.7071 -16.4264 28.3431)" width="2.828" x="24.586" y="33"/><rect height="2" transform="matrix(0.7071 -0.7071 0.7071 0.7071 -10.3553 25)" width="22.627" x="13.686" y="24"/></g><g/></svg>