<?xml version="1.0" encoding="utf-8"?>
<!DOCTYPE svg PUBLIC "-//W3C//DTD SVG 1.0//EN" "http://www.w3.org/TR/2001/REC-SVG-20010904/DTD/svg10.dtd">
<svg version="1.0" id="softworx" xmlns="http://www.w3.org/2000/svg" xmlns:xlink="http://www.w3.org/1999/xlink" x="0px" y="0px" width="1000px" height="1000px" xml:space="preserve">
	<rect x="0" y="0" width="100%" height="50%" fill="#789b2d" fill-opacity="1"/>
	<rect x="0" y="50%" width="100%" height="50%" fill="#232323" fill-opacity="1"/>
	<path id="soft" fill="#232323" d="M261.682,252.18h-16.238c-11.6,0-20.88-9.28-20.88-20.88v-8.12c0-38.28-12.182-55.68-37.7-55.68
		c-24.361,0-37.702,13.339-37.702,43.5c0,29.58,28.42,52.2,56.841,74.239h-0.58c38.279,29.582,77.141,59.161,77.141,115.42
		c0,64.961-34.22,99.762-95.7,99.762c-63.802,0-95.703-37.121-95.703-113.101v-7.541c0-11.6,9.282-20.879,20.882-20.879h16.239
		c11.021,0,20.88,9.28,20.88,20.879v7.541c0,27.839,5.22,41.18,13.341,48.139c6.379,6.382,16.241,7.541,24.361,7.541
		c24.359,0,37.7-10.441,37.7-41.18c0-27.261-26.682-48.72-55.102-70.761v0.58c-38.28-30.159-78.3-61.479-78.3-118.9
		c0-65.539,34.221-103.241,95.703-103.241c62.639,0,95.7,40.021,95.7,113.682v8.12C282.563,242.9,273.282,252.18,261.682,252.18
		L261.682,252.18z M463.521,477.8c-19.141,18.559-43.5,23.2-64.961,23.2c-20.879,0-45.239-4.641-64.379-23.2
		c-17.979-17.979-30.741-44.659-30.741-90.479V223.18c0-73.08,31.9-113.1,95.121-113.1c63.8,0,95.121,39.438,95.121,113.1V387.32
		C493.68,433.141,481.5,459.82,463.521,477.8L463.521,477.8z M435.68,223.18c0-38.861-12.18-55.68-37.121-55.68
		c-25.521,0-37.121,17.979-37.121,55.68V387.32c0,38.28,12.182,56.259,37.121,56.259c24.361,0,37.121-16.82,37.121-56.259V223.18
		L435.68,223.18z M664.195,167.5h-88.161v109.039h64.959c11.6,0,20.882,9.282,20.882,20.882v15.659
		c0,11.6-9.282,20.879-20.882,20.879h-64.959v146.162c0,11.6-9.859,20.879-20.88,20.879h-16.24
		c-11.601,0-20.88-9.279-20.88-20.879V130.959c0-11.6,9.279-20.879,20.88-20.879h125.281c11.601,0,20.88,9.279,20.88,20.879
		v15.659C685.075,158.218,675.796,167.5,664.195,167.5L664.195,167.5z M879.947,167.5h-47.561v312.041
		c0,11.6-9.28,20.88-20.88,20.88h-15.661c-11.601,0-20.88-9.28-20.88-20.88V167.5h-46.979c-11.6,0-20.88-9.282-20.88-20.882
		v-16.239c0-11.6,9.28-20.882,20.88-20.882h151.961c11.601,0,20.88,9.282,20.88,20.882v16.239
		C900.827,158.218,891.548,167.5,879.947,167.5L879.947,167.5z"/>
	<path id="worx" fill="#789b2d" d="M298.048,891h-15.08l-57.42-339.3L168.127,891h-14.5L90.409,500.079h18.559l52.2,339.301l57.421-339.301
		h14.5l57.421,339.301l50.459-339.301h19.141L298.048,891L298.048,891z M488.287,871.279C472.045,886.941,451.166,891,432.025,891
		c-18.559,0-39.441-4.059-55.679-19.721c-16.241-15.659-27.262-40.6-27.262-84.1V603.318c0-66.7,27.841-103.239,82.941-103.239
		c55.68,0,83.521,35.96,83.521,103.239V787.18C515.546,830.68,504.525,855.62,488.287,871.279L488.287,871.279z M496.986,603.318
		c0-59.739-21.461-85.259-64.961-85.259c-44.08,0-64.959,27.259-64.959,85.259V787.18c0,58.579,21.459,85.841,64.959,85.841
		c42.341,0,64.961-25.521,64.961-85.841V603.318L496.986,603.318z M674.459,681.039c-6.382,7.54-19.721,13.341-29,17.981
		c7.539,3.479,13.918,8.118,19.719,13.918c17.399,16.82,26.1,39.441,26.1,69.021v108.462h-18.56V781.959
		c0-46.979-26.679-74.238-73.079-74.238h-52.2v182.7h-17.981V499.498h81.781c62.639,0,84.68,32.482,84.68,103.821
		C695.918,638.118,688.959,664.218,674.459,681.039L674.459,681.039z M611.238,518.06h-63.8v171.1h52.2
		c51.62,0,78.3-25.521,78.3-85.841C677.938,542.418,662.859,518.06,611.238,518.06L611.238,518.06z M901.813,891h-20.3
		l-82.361-174l-82.938,174h-20.3l92.8-195.461l-92.8-195.46h20.3l82.938,174l81.202-174h20.3l-91.641,195.46L901.813,891
		L901.813,891z"/>
</svg>